# xmcd CD database file
#
# Track frame offsets:
#	150
#	25626
#	57816
#	108203
#	148913
#	199281
#	263933
#	287710
#
# Disc length: 4667 seconds
#
# Revision: 0
# Processed by: cddbd v1.4PL0 Copyright (c) Steve Scherf et al.
# Submitted via: NeoAudio 9.9.9
#
DISCID=74123908
DTITLE=Gov't Mule - 10-30-1999 Stubb's Bar-B-Q Austin, TX CD1
DYEAR=1999
DGENRE=Blues
TTITLE0=It Takes More Than a Hammer and Nails
TTITLE1=Dolphineus --> Painted Silver Light
TTITLE2=Thorazine Shuffle
TTITLE3=Gambler's Roll
TTITLE4=Kind of Bird
TTITLE5=Low Spark of High Heeled Boys
TTITLE6=I Shall Return
TTITLE7=Afro Blue
EXTD=YEAR: 1999
EXTT0=
EXTT1=
EXTT2=
EXTT3=
EXTT4=
EXTT5=
EXTT6=
EXTT7=
PLAYORDER=
